<svg width="34" height="34" viewBox="0 0 34 34" fill="none" xmlns="http://www.w3.org/2000/svg">
<g id="Group">
<path id="Vector" d="M8.50003 6.80002V1.7C8.50003 1.24914 8.67913 0.816732 8.99794 0.497916C9.31676 0.179116 9.74915 0 10.2 0H23.8001C24.251 0 24.6833 0.179116 25.0021 0.497916C25.321 0.816732 25.5 1.24914 25.5 1.7V6.80002H32.3001C32.751 6.80002 33.1833 6.97912 33.5021 7.29793C33.821 7.61675 34 8.04914 34 8.50002V32.3001C34 32.751 33.821 33.1833 33.5021 33.5021C33.1833 33.8209 32.751 34 32.3001 34H1.70001C1.24914 34 0.816731 33.8209 0.497916 33.5021C0.179118 33.1833 0 32.751 0 32.3001V8.50002C0 8.04914 0.179118 7.61675 0.497916 7.29793C0.816731 6.97912 1.24914 6.80002 1.70001 6.80002H8.50003ZM3.40001 25.5V30.6001H30.6001V25.5H3.40001ZM3.40001 22.1001H30.6001V10.2H3.40001V22.1001ZM11.9 3.40001V6.80002H22.1001V3.40001H11.9ZM15.3001 17H18.7V20.4H15.3001V17Z" fill="black" fill-opacity="0.8"/>
</g>
</svg>
