<svg width="15" height="15" viewBox="0 0 15 15" fill="none" xmlns="http://www.w3.org/2000/svg">
<g id="32px/mail">
<path id="Vector" d="M2.53558 12.2888C2.20701 12.2888 1.92564 12.1717 1.69146 11.9375C1.45728 11.7034 1.34039 11.4222 1.34079 11.094V3.92526C1.34079 3.59669 1.45788 3.31532 1.69206 3.08114C1.92624 2.84696 2.20741 2.73007 2.53558 2.73047H12.0939C12.4225 2.73047 12.7039 2.84756 12.938 3.08174C13.1722 3.31592 13.2891 3.59709 13.2887 3.92526V11.094C13.2887 11.4226 13.1716 11.704 12.9374 11.9381C12.7033 12.1723 12.4221 12.2892 12.0939 12.2888H2.53558ZM7.31475 8.10703L2.53558 5.12005V11.094H12.0939V5.12005L7.31475 8.10703ZM7.31475 6.91224L12.0939 3.92526H2.53558L7.31475 6.91224ZM2.53558 5.12005V3.92526V11.094V5.12005Z" fill="#F8F5F4"/>
</g>
</svg>
