<svg width="19" height="18" viewBox="0 0 19 18" fill="none" xmlns="http://www.w3.org/2000/svg">
<g id="32px/map">
<path id="Vector" d="M9.30998 5.14687C9.82439 5.14687 10.3177 5.33015 10.6815 5.65639C11.0452 5.98262 11.2496 6.42509 11.2496 6.88646C11.2496 7.1149 11.1994 7.34111 11.1019 7.55217C11.0045 7.76322 10.8616 7.95499 10.6815 8.11653C10.5014 8.27806 10.2876 8.4062 10.0522 8.49362C9.81691 8.58105 9.56469 8.62604 9.30998 8.62604C8.79557 8.62604 8.30223 8.44276 7.93849 8.11653C7.57475 7.79029 7.3704 7.34782 7.3704 6.88646C7.3704 6.42509 7.57475 5.98262 7.93849 5.65639C8.30223 5.33015 8.79557 5.14687 9.30998 5.14687ZM9.30998 2.01562C10.7503 2.01563 12.1317 2.5288 13.1502 3.44226C14.1686 4.35572 14.7408 5.59463 14.7408 6.88646C14.7408 10.5396 9.30998 15.9323 9.30998 15.9323C9.30998 15.9323 3.87915 10.5396 3.87915 6.88646C3.87915 5.59463 4.45133 4.35572 5.4698 3.44226C6.48828 2.5288 7.86964 2.01563 9.30998 2.01562ZM9.30998 3.40729C8.28116 3.40729 7.29448 3.77385 6.567 4.42632C5.83951 5.07879 5.43082 5.96373 5.43082 6.88646C5.43082 7.58229 5.43082 8.97396 9.30998 13.643C13.1891 8.97396 13.1891 7.58229 13.1891 6.88646C13.1891 5.96373 12.7805 5.07879 12.053 4.42632C11.3255 3.77385 10.3388 3.40729 9.30998 3.40729Z" fill="#F8F5F4"/>
</g>
</svg>
