<svg width="245" height="85" viewBox="0 0 245 85" fill="none" xmlns="http://www.w3.org/2000/svg">
<g clip-path="url(#clip0_92471_114)">
<path d="M0 0H245V85H0V0Z" fill="black"/>
<path d="M20.1738 61V24.7695H23.6934V61H20.1738ZM29.5006 28.1855V24.7695H51.9117V28.1855H42.44V61H38.9205V28.1855H29.5006ZM72.1697 61L79.1053 30.2559H79.9852L81.2273 36.001L75.6375 61H72.1697ZM79.4676 54.7373L80.1922 51.3213H87.076L81.2273 24.8213H84.7469L92.8211 61H89.3016L87.9559 54.7373H79.4676ZM99.0424 61V24.6143H102.614V61H99.0424ZM109.611 61V24.6143H113.183V61H109.611ZM120.284 29.8418C120.284 28.9102 120.732 28.2718 121.629 27.9268C121.906 27.8232 122.164 27.7715 122.406 27.7715C123.338 27.7715 123.976 28.2201 124.321 29.1172C124.39 29.3587 124.424 29.6003 124.424 29.8418C124.424 30.8079 123.976 31.4463 123.079 31.7568C122.837 31.8258 122.613 31.8604 122.406 31.8604C121.44 31.8604 120.784 31.429 120.439 30.5664C120.336 30.3249 120.284 30.0833 120.284 29.8418ZM120.698 61V33.9307H124.114V61H120.698ZM131.267 54.582V52.1494C131.301 49.9066 132.164 48.3021 133.855 47.3359C134.441 47.0254 136.701 46.3698 140.635 45.3691C144.845 44.2995 146.932 43.3333 146.898 42.4707V41.5391C146.898 40.4349 146.587 39.4515 145.966 38.5889C144.965 37.2087 143.637 36.5186 141.981 36.5186V33.4131C144.258 33.4131 146.173 34.1377 147.726 35.5869C149.451 37.2087 150.314 39.1755 150.314 41.4873V55.9795C150.348 57.0492 150.797 57.6185 151.659 57.6875V60.9482C150.072 60.9482 148.795 60.3271 147.829 59.085C147.795 59.1195 147.76 59.154 147.726 59.1885C146.346 60.3617 144.431 60.9482 141.981 60.9482V57.7393C142.188 57.7393 142.412 57.722 142.654 57.6875C145.517 57.4805 146.949 55.945 146.949 53.0811V46.5596C145.983 47.0426 144.051 47.6292 141.153 48.3193C137.564 49.1475 135.511 49.8203 134.993 50.3379C134.614 50.7174 134.407 51.304 134.372 52.0977V53.7539C134.372 54.1335 134.424 54.513 134.528 54.8926C135.045 56.7904 136.701 57.7393 139.496 57.7393V60.9482C137.391 60.9482 135.563 60.4134 134.01 59.3438C132.181 58.0326 131.267 56.4453 131.267 54.582ZM131.629 40.2969C131.595 38.6751 132.233 37.2087 133.544 35.8975C135.2 34.2412 137.202 33.4131 139.548 33.4131V36.6221C138.72 36.6221 137.944 36.8118 137.219 37.1914C135.528 38.0885 134.683 39.5205 134.683 41.4873L131.629 40.2969ZM158.139 61V40.918C158.139 39.2617 158.881 37.6572 160.365 36.1045C162.159 34.3102 164.368 33.4131 166.99 33.4131V36.8291C165.127 36.8291 163.626 37.5537 162.487 39.0029C161.901 39.762 161.607 40.5384 161.607 41.332V61H158.139ZM169.216 36.8291V33.4131C172.39 33.4131 174.874 34.6898 176.669 37.2432C177.566 38.5544 178.014 39.7793 178.014 40.918V61H174.547V41.332C174.547 40.2279 173.977 39.1755 172.839 38.1748C171.804 37.2777 170.596 36.8291 169.216 36.8291ZM184.65 53.4951V41.0732C184.684 39.8656 185.081 38.6406 185.84 37.3984C187.496 34.8105 189.946 33.5166 193.19 33.5166V36.7773C191.982 36.7773 190.895 37.1569 189.929 37.916C188.721 38.8822 188.118 39.9863 188.118 41.2285V53.4951C188.118 54.1162 188.325 54.7546 188.739 55.4102C189.774 56.9629 191.258 57.7393 193.19 57.7393V61C190.498 61 188.342 60.1374 186.72 58.4121C185.34 56.9284 184.65 55.2894 184.65 53.4951ZM195.519 36.8291V33.5166C197.279 33.5166 198.866 34.0514 200.281 35.1211C202.316 36.6738 203.334 38.6924 203.334 41.1768L200.125 42.3672C200.125 41.8151 200.108 41.4528 200.074 41.2803C200.005 40.4176 199.763 39.6585 199.349 39.0029C198.486 37.5537 197.21 36.8291 195.519 36.8291ZM195.467 61.0518V57.791C196.261 57.791 197.037 57.6185 197.796 57.2734C199.522 56.4453 200.488 55.0651 200.695 53.1328V52.0977L203.955 53.3398C203.955 55.1341 203.231 56.7904 201.782 58.3086C199.987 60.1719 197.883 61.0863 195.467 61.0518ZM210.021 53.4951V40.918C210.056 39.3307 210.815 37.778 212.299 36.2598C214.024 34.4655 216.146 33.5511 218.665 33.5166V36.7773C216.836 36.7773 215.37 37.5882 214.266 39.21C213.748 39.9691 213.489 40.6764 213.489 41.332V45.1621H226.48V41.332C226.48 39.6758 225.635 38.3818 223.944 37.4502C223.047 36.9326 222.116 36.6738 221.149 36.6738V33.5166C223.496 33.5166 225.601 34.362 227.464 36.0527C228.982 37.502 229.758 39.1064 229.793 40.8662V48.4746H213.489V53.4951C213.489 54.4958 214.093 55.4964 215.301 56.4971C216.37 57.3597 217.509 57.791 218.717 57.791V61C215.646 61 213.213 59.7406 211.419 57.2217C210.487 55.876 210.021 54.6338 210.021 53.4951ZM221.149 61V57.6875C223.323 57.6875 224.979 56.7904 226.118 54.9961C226.463 54.4785 226.688 53.9782 226.791 53.4951L229.845 54.6338C229.155 57.0837 227.671 58.8779 225.394 60.0166C224.082 60.6722 222.668 61 221.149 61Z" fill="white"/>
</g>
<defs>
<clipPath id="clip0_92471_114">
<rect width="245" height="85" fill="white"/>
</clipPath>
</defs>
</svg>
