<svg width="34" height="34" viewBox="0 0 34 34" fill="none" xmlns="http://www.w3.org/2000/svg">
<path d="M1.7 0H32.3C32.7508 0 33.1833 0.199004 33.5021 0.553234C33.8209 0.907483 34 1.38793 34 1.88888V32.1112C34 32.6121 33.8209 33.0927 33.5021 33.4469C33.1833 33.8011 32.7508 34 32.3 34H1.7C1.24912 34 0.816731 33.8011 0.497915 33.4469C0.179099 33.0927 0 32.6121 0 32.1112V1.88888C0 1.38793 0.179099 0.907483 0.497915 0.553234C0.816731 0.199004 1.24912 0 1.7 0ZM30.5999 8.00512L17.1224 21.4163L3.4 7.96357V30.2223H30.5999V8.00512ZM4.26871 3.77778L17.1037 16.3617L29.7534 3.77778H4.26871Z" fill="black"/>
</svg>
