<svg width="60" height="12" viewBox="0 0 60 12" fill="none" xmlns="http://www.w3.org/2000/svg">
<path d="M0.615234 11V0.746094H1.61133V11H0.615234ZM3.25488 1.71289V0.746094H9.59766V1.71289H6.91699V11H5.9209V1.71289H3.25488ZM15.3311 11L17.2939 2.29883H17.543L17.8945 3.9248L16.3125 11H15.3311ZM17.3965 9.22754L17.6016 8.26074H19.5498L17.8945 0.760742H18.8906L21.1758 11H20.1797L19.7988 9.22754H17.3965ZM22.9365 11V0.702148H23.9473V11H22.9365ZM25.9277 11V0.702148H26.9385V11H25.9277ZM28.9482 2.18164C28.9482 1.91797 29.0752 1.7373 29.3291 1.63965C29.4072 1.61035 29.4805 1.5957 29.5488 1.5957C29.8125 1.5957 29.9932 1.72266 30.0908 1.97656C30.1104 2.04492 30.1201 2.11328 30.1201 2.18164C30.1201 2.45508 29.9932 2.63574 29.7393 2.72363C29.6709 2.74316 29.6074 2.75293 29.5488 2.75293C29.2754 2.75293 29.0898 2.63086 28.9922 2.38672C28.9629 2.31836 28.9482 2.25 28.9482 2.18164ZM29.0654 11V3.33887H30.0322V11H29.0654ZM32.0566 9.18359V8.49512C32.0664 7.86035 32.3105 7.40625 32.7891 7.13281C32.9551 7.04492 33.5947 6.85938 34.708 6.57617C35.8994 6.27344 36.4902 6 36.4805 5.75586V5.49219C36.4805 5.17969 36.3926 4.90137 36.2168 4.65723C35.9336 4.2666 35.5576 4.07129 35.0889 4.07129V3.19238C35.7334 3.19238 36.2754 3.39746 36.7148 3.80762C37.2031 4.2666 37.4473 4.82324 37.4473 5.47754V9.5791C37.457 9.88184 37.584 10.043 37.8281 10.0625V10.9854C37.3789 10.9854 37.0176 10.8096 36.7441 10.458C36.7344 10.4678 36.7246 10.4775 36.7148 10.4873C36.3242 10.8193 35.7822 10.9854 35.0889 10.9854V10.0771C35.1475 10.0771 35.2109 10.0723 35.2793 10.0625C36.0898 10.0039 36.4951 9.56934 36.4951 8.75879V6.91309C36.2217 7.0498 35.6748 7.21582 34.8545 7.41113C33.8389 7.64551 33.2578 7.83594 33.1113 7.98242C33.0039 8.08984 32.9453 8.25586 32.9355 8.48047V8.94922C32.9355 9.05664 32.9502 9.16406 32.9795 9.27148C33.126 9.80859 33.5947 10.0771 34.3857 10.0771V10.9854C33.79 10.9854 33.2725 10.834 32.833 10.5312C32.3154 10.1602 32.0566 9.71094 32.0566 9.18359ZM32.1592 5.14062C32.1494 4.68164 32.3301 4.2666 32.7012 3.89551C33.1699 3.42676 33.7363 3.19238 34.4004 3.19238V4.10059C34.166 4.10059 33.9463 4.1543 33.7412 4.26172C33.2627 4.51562 33.0234 4.9209 33.0234 5.47754L32.1592 5.14062ZM39.6621 11V5.31641C39.6621 4.84766 39.8721 4.39355 40.292 3.9541C40.7998 3.44629 41.4248 3.19238 42.167 3.19238V4.15918C41.6396 4.15918 41.2148 4.36426 40.8926 4.77441C40.7266 4.98926 40.6436 5.20898 40.6436 5.43359V11H39.6621ZM42.7969 4.15918V3.19238C43.6953 3.19238 44.3984 3.55371 44.9062 4.27637C45.1602 4.64746 45.2871 4.99414 45.2871 5.31641V11H44.3057V5.43359C44.3057 5.12109 44.1445 4.82324 43.8223 4.54004C43.5293 4.28613 43.1875 4.15918 42.7969 4.15918ZM47.165 8.87598V5.36035C47.1748 5.01855 47.2871 4.67188 47.502 4.32031C47.9707 3.58789 48.6641 3.22168 49.582 3.22168V4.14453C49.2402 4.14453 48.9326 4.25195 48.6592 4.4668C48.3174 4.74023 48.1465 5.05273 48.1465 5.4043V8.87598C48.1465 9.05176 48.2051 9.23242 48.3223 9.41797C48.6152 9.85742 49.0352 10.0771 49.582 10.0771V11C48.8203 11 48.21 10.7559 47.751 10.2676C47.3604 9.84766 47.165 9.38379 47.165 8.87598ZM50.2412 4.15918V3.22168C50.7393 3.22168 51.1885 3.37305 51.5889 3.67578C52.165 4.11523 52.4531 4.68652 52.4531 5.38965L51.5449 5.72656C51.5449 5.57031 51.54 5.46777 51.5303 5.41895C51.5107 5.1748 51.4424 4.95996 51.3252 4.77441C51.0811 4.36426 50.7197 4.15918 50.2412 4.15918ZM50.2266 11.0146V10.0918C50.4512 10.0918 50.6709 10.043 50.8857 9.94531C51.374 9.71094 51.6475 9.32031 51.7061 8.77344V8.48047L52.6289 8.83203C52.6289 9.33984 52.4238 9.80859 52.0137 10.2383C51.5059 10.7656 50.9102 11.0244 50.2266 11.0146ZM54.3457 8.87598V5.31641C54.3555 4.86719 54.5703 4.42773 54.9902 3.99805C55.4785 3.49023 56.0791 3.23145 56.792 3.22168V4.14453C56.2744 4.14453 55.8594 4.37402 55.5469 4.83301C55.4004 5.04785 55.3271 5.24805 55.3271 5.43359V6.51758H59.0039V5.43359C59.0039 4.96484 58.7646 4.59863 58.2861 4.33496C58.0322 4.18848 57.7686 4.11523 57.4951 4.11523V3.22168C58.1592 3.22168 58.7549 3.46094 59.2822 3.93945C59.7119 4.34961 59.9316 4.80371 59.9414 5.30176V7.45508H55.3271V8.87598C55.3271 9.15918 55.498 9.44238 55.8398 9.72559C56.1426 9.96973 56.4648 10.0918 56.8066 10.0918V11C55.9375 11 55.249 10.6436 54.7412 9.93066C54.4775 9.5498 54.3457 9.19824 54.3457 8.87598ZM57.4951 11V10.0625C58.1104 10.0625 58.5791 9.80859 58.9014 9.30078C58.999 9.1543 59.0625 9.0127 59.0918 8.87598L59.9561 9.19824C59.7607 9.8916 59.3408 10.3994 58.6963 10.7217C58.3252 10.9072 57.9248 11 57.4951 11Z" fill="white"/>
</svg>
