<svg width="210" height="38" viewBox="0 0 210 38" fill="none" xmlns="http://www.w3.org/2000/svg">
<path d="M0.173828 37V0.769531H3.69336V37H0.173828ZM9.50059 4.18555V0.769531H31.9117V4.18555H22.44V37H18.9205V4.18555H9.50059ZM52.1697 37L59.1053 6.25586H59.9852L61.2273 12.001L55.6375 37H52.1697ZM59.4676 30.7373L60.1922 27.3213H67.076L61.2273 0.821289H64.7469L72.8211 37H69.3016L67.9559 30.7373H59.4676ZM79.0424 37V0.614258H82.6137V37H79.0424ZM89.6113 37V0.614258H93.1826V37H89.6113ZM100.284 5.8418C100.284 4.91016 100.732 4.27181 101.629 3.92676C101.906 3.82324 102.164 3.77148 102.406 3.77148C103.338 3.77148 103.976 4.22005 104.321 5.11719C104.39 5.35872 104.424 5.60026 104.424 5.8418C104.424 6.80794 103.976 7.44629 103.079 7.75684C102.837 7.82585 102.613 7.86035 102.406 7.86035C101.44 7.86035 100.784 7.42904 100.439 6.56641C100.336 6.32487 100.284 6.08333 100.284 5.8418ZM100.698 37V9.93066H104.114V37H100.698ZM111.267 30.582V28.1494C111.301 25.9066 112.164 24.3021 113.855 23.3359C114.441 23.0254 116.701 22.3698 120.635 21.3691C124.845 20.2995 126.932 19.3333 126.898 18.4707V17.5391C126.898 16.4349 126.587 15.4515 125.966 14.5889C124.965 13.2087 123.637 12.5186 121.981 12.5186V9.41309C124.258 9.41309 126.173 10.1377 127.726 11.5869C129.451 13.2087 130.314 15.1755 130.314 17.4873V31.9795C130.348 33.0492 130.797 33.6185 131.659 33.6875V36.9482C130.072 36.9482 128.795 36.3271 127.829 35.085C127.795 35.1195 127.76 35.154 127.726 35.1885C126.346 36.3617 124.431 36.9482 121.981 36.9482V33.7393C122.188 33.7393 122.412 33.722 122.654 33.6875C125.517 33.4805 126.949 31.945 126.949 29.0811V22.5596C125.983 23.0426 124.051 23.6292 121.153 24.3193C117.564 25.1475 115.511 25.8203 114.993 26.3379C114.614 26.7174 114.407 27.304 114.372 28.0977V29.7539C114.372 30.1335 114.424 30.513 114.528 30.8926C115.045 32.7904 116.701 33.7393 119.496 33.7393V36.9482C117.391 36.9482 115.563 36.4134 114.01 35.3438C112.181 34.0326 111.267 32.4453 111.267 30.582ZM111.629 16.2969C111.595 14.6751 112.233 13.2087 113.544 11.8975C115.2 10.2412 117.202 9.41309 119.548 9.41309V12.6221C118.72 12.6221 117.944 12.8118 117.219 13.1914C115.528 14.0885 114.683 15.5205 114.683 17.4873L111.629 16.2969ZM138.139 37V16.918C138.139 15.2617 138.881 13.6572 140.365 12.1045C142.159 10.3102 144.368 9.41309 146.99 9.41309V12.8291C145.127 12.8291 143.626 13.5537 142.487 15.0029C141.901 15.762 141.607 16.5384 141.607 17.332V37H138.139ZM149.216 12.8291V9.41309C152.39 9.41309 154.874 10.6898 156.669 13.2432C157.566 14.5544 158.014 15.7793 158.014 16.918V37H154.547V17.332C154.547 16.2279 153.977 15.1755 152.839 14.1748C151.804 13.2777 150.596 12.8291 149.216 12.8291ZM164.65 29.4951V17.0732C164.684 15.8656 165.081 14.6406 165.84 13.3984C167.496 10.8105 169.946 9.5166 173.19 9.5166V12.7773C171.982 12.7773 170.895 13.1569 169.929 13.916C168.721 14.8822 168.118 15.9863 168.118 17.2285V29.4951C168.118 30.1162 168.325 30.7546 168.739 31.4102C169.774 32.9629 171.258 33.7393 173.19 33.7393V37C170.498 37 168.342 36.1374 166.72 34.4121C165.34 32.9284 164.65 31.2894 164.65 29.4951ZM175.519 12.8291V9.5166C177.279 9.5166 178.866 10.0514 180.281 11.1211C182.316 12.6738 183.334 14.6924 183.334 17.1768L180.125 18.3672C180.125 17.8151 180.108 17.4528 180.074 17.2803C180.005 16.4176 179.763 15.6585 179.349 15.0029C178.486 13.5537 177.21 12.8291 175.519 12.8291ZM175.467 37.0518V33.791C176.261 33.791 177.037 33.6185 177.796 33.2734C179.522 32.4453 180.488 31.0651 180.695 29.1328V28.0977L183.955 29.3398C183.955 31.1341 183.231 32.7904 181.782 34.3086C179.987 36.1719 177.883 37.0863 175.467 37.0518ZM190.021 29.4951V16.918C190.056 15.3307 190.815 13.778 192.299 12.2598C194.024 10.4655 196.146 9.55111 198.665 9.5166V12.7773C196.836 12.7773 195.37 13.5882 194.266 15.21C193.748 15.9691 193.489 16.6764 193.489 17.332V21.1621H206.48V17.332C206.48 15.6758 205.635 14.3818 203.944 13.4502C203.047 12.9326 202.116 12.6738 201.149 12.6738V9.5166C203.496 9.5166 205.601 10.362 207.464 12.0527C208.982 13.502 209.758 15.1064 209.793 16.8662V24.4746H193.489V29.4951C193.489 30.4958 194.093 31.4964 195.301 32.4971C196.37 33.3597 197.509 33.791 198.717 33.791V37C195.646 37 193.213 35.7406 191.419 33.2217C190.487 31.876 190.021 30.6338 190.021 29.4951ZM201.149 37V33.6875C203.323 33.6875 204.979 32.7904 206.118 30.9961C206.463 30.4785 206.688 29.9782 206.791 29.4951L209.845 30.6338C209.155 33.0837 207.671 34.8779 205.394 36.0166C204.082 36.6722 202.668 37 201.149 37Z" fill="white"/>
</svg>
