<svg width="11" height="10" viewBox="0 0 11 10" fill="none" xmlns="http://www.w3.org/2000/svg">
<g id="placeholder">
<g id="Group">
<path id="Vector" d="M4.61913 2.19141C3.84391 2.19141 3.21292 2.76503 3.21292 3.46978C3.21292 4.17453 3.84391 4.74816 4.61913 4.74816C5.39436 4.74816 6.02535 4.17453 6.02535 3.46978C6.02535 2.76503 5.39436 2.19141 4.61913 2.19141ZM4.61913 4.38291C4.06529 4.38291 3.6147 3.97328 3.6147 3.46978C3.6147 2.96628 4.06529 2.55666 4.61913 2.55666C5.17298 2.55666 5.62357 2.96628 5.62357 3.46978C5.62357 3.97328 5.17298 4.38291 4.61913 4.38291Z" fill="#F0F0F0"/>
<path id="Vector_2" d="M7.30774 1.0258C6.58013 0.364337 5.61266 0 4.58371 0C3.55456 0 2.58729 0.364337 1.85968 1.0258C0.513127 2.24976 0.345788 4.55266 1.49728 5.94792L4.58371 10L7.66553 5.95358C8.82163 4.55266 8.65429 2.24976 7.30774 1.0258ZM7.33969 5.74009L4.58371 9.35826L1.82332 5.73443C0.778902 4.46847 0.928563 2.38874 2.14393 1.28404C2.79561 0.691601 3.66204 0.36525 4.58371 0.36525C5.50538 0.36525 6.37181 0.691601 7.02369 1.28404C8.23906 2.38874 8.38872 4.46847 7.33969 5.74009Z" fill="#F0F0F0"/>
</g>
</g>
</svg>
