<svg width="8" height="7" viewBox="0 0 8 7" fill="none" xmlns="http://www.w3.org/2000/svg">
<g id="phone-call" clip-path="url(#clip0_92000_10758)">
<g id="Group">
<path id="Vector" d="M7.99451 5.76144C7.96908 5.59323 7.8581 5.4482 7.69007 5.36355L5.71644 4.36925C5.47472 4.24747 5.16806 4.28293 4.97076 4.45555L4.58202 4.7957C4.47857 4.88623 4.31491 4.89424 4.20141 4.81431C3.89494 4.59854 3.5932 4.36107 3.30456 4.1085C3.01593 3.85595 2.74454 3.59194 2.49793 3.32376C2.40658 3.22443 2.41572 3.08125 2.5192 2.99072L2.90792 2.65057C3.10521 2.47796 3.14578 2.20967 3.00656 1.99811L1.87022 0.271187C1.77346 0.124145 1.60773 0.0270539 1.41549 0.0047995C1.22324 -0.0175003 1.03433 0.0386045 0.897214 0.158585L0.311462 0.671132C-0.0973592 1.02887 -0.103925 1.68323 0.292975 2.5137C0.674617 3.31223 1.38683 4.19128 2.29838 4.98891C3.20996 5.78654 4.21459 6.40972 5.12722 6.74366C5.5944 6.9146 6.01278 7.00002 6.36602 7.00001C6.73038 7.00001 7.02541 6.9091 7.23301 6.72747L7.81876 6.21492C7.95586 6.09494 8.01993 5.92965 7.99451 5.76144ZM5.58713 4.56578L7.56076 5.56008C7.65836 5.60924 7.72281 5.69348 7.73757 5.79118C7.74997 5.87317 7.72563 5.9539 7.67044 6.01895L5.04751 4.70912L5.15403 4.61591C5.2686 4.51566 5.44674 4.49505 5.58713 4.56578ZM1.38149 0.229627C1.49316 0.242553 1.58942 0.298945 1.64561 0.384349L2.78195 2.11127C2.86281 2.23414 2.83924 2.38998 2.72467 2.49022L2.62682 2.57584L1.12164 0.288362C1.18317 0.248495 1.25676 0.226845 1.33347 0.226845C1.34939 0.226845 1.36544 0.227767 1.38149 0.229627ZM7.04972 6.5671C6.72492 6.8513 6.06064 6.83939 5.22721 6.53442C4.34498 6.21161 3.36994 5.60578 2.48167 4.82855C1.59339 4.05131 0.901015 3.19814 0.532089 2.42621C0.183534 1.69694 0.169936 1.11569 0.494733 0.831479L0.929576 0.450977L2.43702 2.74191L2.33593 2.83037C2.13869 3.00296 2.12152 3.27619 2.29599 3.46595C2.54841 3.74044 2.82609 4.01058 3.12127 4.26887C3.41649 4.52717 3.72522 4.77013 4.03891 4.991C4.25575 5.14367 4.568 5.12865 4.76529 4.95605L4.85752 4.87534L7.4841 6.18701L7.04972 6.5671Z" fill="#F0F0F0"/>
</g>
</g>
<defs>
<clipPath id="clip0_92000_10758">
<rect width="8" height="7" fill="white"/>
</clipPath>
</defs>
</svg>
