<svg width="34" height="34" viewBox="0 0 34 34" fill="none" xmlns="http://www.w3.org/2000/svg">
<g id="server 1" clip-path="url(#clip0_92007_12370)">
<g id="Group">
<path id="Vector" d="M31.3718 11.1114C32.821 11.1114 34 9.93233 34 8.48318V4.22486C34 2.7757 32.821 1.59668 31.3718 1.59668H2.62818C1.17902 1.59668 0 2.7757 0 4.22486V8.48318C0 9.93233 1.17902 11.1114 2.62818 11.1114H16.501V12.2425H2.62818C1.17902 12.2425 0 13.4215 0 14.8706V19.129C0 20.5781 1.17902 21.7571 2.62818 21.7571H16.501V22.8883H2.62818C1.17902 22.8883 0 24.0673 0 25.5164V29.7748C0 31.2239 1.17902 32.4029 2.62818 32.4029H31.3718C32.821 32.4029 34 31.2239 34 29.7748V25.5164C34 24.0673 32.821 22.8883 31.3718 22.8883H17.499V21.7571H31.3718C32.821 21.7571 34 20.5781 34 19.129V14.8706C34 13.4215 32.821 12.2425 31.3718 12.2425H17.499V11.1114H31.3718ZM33.002 25.5164V29.7748C33.002 30.6737 32.2707 31.4049 31.3718 31.4049H2.62818C1.72934 31.4049 0.998043 30.6737 0.998043 29.7748V25.5164C0.998043 24.6175 1.72934 23.8863 2.62818 23.8863H31.3718C32.2707 23.8863 33.002 24.6175 33.002 25.5164ZM33.002 14.8706V19.129C33.002 20.0279 32.2707 20.7591 31.3718 20.7591H2.62818C1.72934 20.7591 0.998043 20.0279 0.998043 19.129V14.8706C0.998043 13.9717 1.72934 13.2405 2.62818 13.2405H31.3718C32.2707 13.2405 33.002 13.9717 33.002 14.8706ZM0.998043 8.48318V4.22486C0.998043 3.32596 1.72934 2.59472 2.62818 2.59472H31.3718C32.2707 2.59472 33.002 3.32596 33.002 4.22486V8.48318C33.002 9.38208 32.2707 10.1133 31.3718 10.1133H2.62818C1.72934 10.1133 0.998043 9.38208 0.998043 8.48318Z" fill="black"/>
<path id="Vector_2" d="M4.75733 4.25781C3.60166 4.25781 2.66144 5.19804 2.66144 6.3537C2.66144 7.50937 3.60166 8.44959 4.75733 8.44959C5.913 8.44959 6.85322 7.50937 6.85322 6.3537C6.85322 5.19804 5.913 4.25781 4.75733 4.25781ZM4.75733 7.45155C4.15198 7.45155 3.65948 6.95905 3.65948 6.3537C3.65948 5.74836 4.15198 5.25586 4.75733 5.25586C5.36267 5.25586 5.85518 5.74836 5.85518 6.3537C5.85518 6.95905 5.36267 7.45155 4.75733 7.45155Z" fill="black"/>
<path id="Vector_3" d="M9.54791 4.79004C8.68574 4.79004 7.98431 5.49146 7.98431 6.35364C7.98431 7.21582 8.68574 7.91724 9.54791 7.91724C10.4101 7.91724 11.1115 7.21582 11.1115 6.35364C11.1115 5.49146 10.4101 4.79004 9.54791 4.79004ZM9.54791 6.9192C9.23606 6.9192 8.98236 6.66549 8.98236 6.35364C8.98236 6.04178 9.23606 5.78808 9.54791 5.78808C9.85977 5.78808 10.1135 6.04178 10.1135 6.35364C10.1135 6.66549 9.85977 6.9192 9.54791 6.9192Z" fill="black"/>
<path id="Vector_4" d="M4.75733 14.9043C3.60166 14.9043 2.66144 15.8445 2.66144 17.0002C2.66144 18.1559 3.60166 19.0961 4.75733 19.0961C5.913 19.0961 6.85322 18.1559 6.85322 17.0002C6.85322 15.8445 5.913 14.9043 4.75733 14.9043ZM4.75733 18.098C4.15198 18.098 3.65948 17.6055 3.65948 17.0002C3.65948 16.3948 4.15198 15.9023 4.75733 15.9023C5.36267 15.9023 5.85518 16.3948 5.85518 17.0002C5.85518 17.6055 5.36267 18.098 4.75733 18.098Z" fill="black"/>
<path id="Vector_5" d="M9.54791 15.4365C8.68574 15.4365 7.98431 16.1379 7.98431 17.0001C7.98431 17.8623 8.68574 18.5637 9.54791 18.5637C10.4101 18.5637 11.1115 17.8623 11.1115 17.0001C11.1115 16.1379 10.4101 15.4365 9.54791 15.4365ZM9.54791 17.5657C9.23606 17.5657 8.98236 17.312 8.98236 17.0001C8.98236 16.6883 9.23606 16.4346 9.54791 16.4346C9.85977 16.4346 10.1135 16.6883 10.1135 17.0001C10.1135 17.312 9.85977 17.5657 9.54791 17.5657Z" fill="black"/>
<path id="Vector_6" d="M30.3073 17.5654H12.7417C12.4661 17.5654 12.2427 17.7888 12.2427 18.0645C12.2427 18.3401 12.4661 18.5635 12.7417 18.5635H30.3073C30.5828 18.5635 30.8063 18.3401 30.8063 18.0645C30.8063 17.7888 30.5828 17.5654 30.3073 17.5654Z" fill="black"/>
<path id="Vector_7" d="M12.2427 15.9355C12.2427 16.2112 12.4661 16.4346 12.7417 16.4346H30.3073C30.5828 16.4346 30.8063 16.2112 30.8063 15.9355C30.8063 15.6599 30.5828 15.4365 30.3073 15.4365H12.7417C12.4661 15.4365 12.2427 15.6599 12.2427 15.9355Z" fill="black"/>
<path id="Vector_8" d="M30.8063 7.41894C30.8063 7.14328 30.5828 6.91992 30.3073 6.91992H12.7417C12.4661 6.91992 12.2427 7.14328 12.2427 7.41894C12.2427 7.6946 12.4661 7.91797 12.7417 7.91797H30.3073C30.5828 7.91797 30.8063 7.6946 30.8063 7.41894Z" fill="black"/>
<path id="Vector_9" d="M12.7417 5.78808H30.3073C30.5828 5.78808 30.8063 5.56472 30.8063 5.28906C30.8063 5.0134 30.5828 4.79004 30.3073 4.79004H12.7417C12.4661 4.79004 12.2427 5.0134 12.2427 5.28906C12.2427 5.56472 12.4661 5.78808 12.7417 5.78808Z" fill="black"/>
<path id="Vector_10" d="M4.75733 25.5498C3.60166 25.5498 2.66144 26.49 2.66144 27.6457C2.66144 28.8014 3.60166 29.7416 4.75733 29.7416C5.913 29.7416 6.85322 28.8014 6.85322 27.6457C6.85322 26.49 5.913 25.5498 4.75733 25.5498ZM4.75733 28.7435C4.15198 28.7435 3.65948 28.251 3.65948 27.6457C3.65948 27.0403 4.15198 26.5478 4.75733 26.5478C5.36267 26.5478 5.85518 27.0403 5.85518 27.6457C5.85518 28.251 5.36267 28.7435 4.75733 28.7435Z" fill="black"/>
<path id="Vector_11" d="M9.54791 26.082C8.68574 26.082 7.98431 26.7835 7.98431 27.6456C7.98431 28.5078 8.68574 29.2092 9.54791 29.2092C10.4101 29.2092 11.1115 28.5078 11.1115 27.6456C11.1115 26.7835 10.4101 26.082 9.54791 26.082ZM9.54791 28.2112C9.23606 28.2112 8.98236 27.9575 8.98236 27.6456C8.98236 27.3338 9.23606 27.0801 9.54791 27.0801C9.85977 27.0801 10.1135 27.3338 10.1135 27.6456C10.1135 27.9575 9.85977 28.2112 9.54791 28.2112Z" fill="black"/>
<path id="Vector_12" d="M30.3073 28.2109H12.7417C12.4661 28.2109 12.2427 28.4343 12.2427 28.71C12.2427 28.9856 12.4661 29.209 12.7417 29.209H30.3073C30.5828 29.209 30.8063 28.9856 30.8063 28.71C30.8063 28.4343 30.5828 28.2109 30.3073 28.2109Z" fill="black"/>
<path id="Vector_13" d="M12.2427 26.5811C12.2427 26.8567 12.4661 27.0801 12.7417 27.0801H30.3073C30.5828 27.0801 30.8063 26.8567 30.8063 26.5811C30.8063 26.3054 30.5828 26.082 30.3073 26.082H12.7417C12.4661 26.082 12.2427 26.3054 12.2427 26.5811Z" fill="black"/>
</g>
</g>
<defs>
<clipPath id="clip0_92007_12370">
<rect width="34" height="34" fill="white"/>
</clipPath>
</defs>
</svg>
